<svg xmlns="http://www.w3.org/2000/svg" width="777.059" height="534.049" viewBox="0 0 777.059 534.049">
  <g id="Grupo_16385" data-name="Grupo 16385" transform="translate(-308.972 -4085)">
    <ellipse id="Elipse_642" data-name="Elipse 642" cx="330" cy="222" rx="330" ry="222" transform="translate(370 4119)" fill="#fffbe8"/>
    <g id="Grupo_16384" data-name="Grupo 16384">
      <path id="Trazado_17905" data-name="Trazado 17905" d="M-71.618-6.778h-6.187v4.189h7.262V0H-81.028V-15.641h10.463v2.61h-7.24V-9.3h6.188Zm9.056,3.566a1,1,0,0,0-.564-.9,6.406,6.406,0,0,0-1.81-.585q-4.146-.87-4.146-3.523A3.194,3.194,0,0,1-67.8-10.8a5.178,5.178,0,0,1,3.357-1.037A5.573,5.573,0,0,1-60.9-10.8a3.284,3.284,0,0,1,1.327,2.707h-3.1a1.5,1.5,0,0,0-.43-1.1,1.818,1.818,0,0,0-1.343-.435,1.858,1.858,0,0,0-1.214.354,1.119,1.119,0,0,0-.43.9.957.957,0,0,0,.489.833,5.028,5.028,0,0,0,1.649.548A13.468,13.468,0,0,1-62-6.467a3.212,3.212,0,0,1,2.46,3.126A3.032,3.032,0,0,1-60.908-.768a5.885,5.885,0,0,1-3.523.983,6.147,6.147,0,0,1-2.594-.521A4.353,4.353,0,0,1-68.8-1.735a3.32,3.32,0,0,1-.645-1.96H-66.5a1.621,1.621,0,0,0,.612,1.268,2.429,2.429,0,0,0,1.525.44,2.248,2.248,0,0,0,1.348-.338A1.053,1.053,0,0,0-62.562-3.212Zm9.851.924a2.036,2.036,0,0,0,1.4-.473,1.656,1.656,0,0,0,.559-1.257h2.911a3.982,3.982,0,0,1-.645,2.165A4.253,4.253,0,0,1-50.225-.328a5.43,5.43,0,0,1-2.433.542A5.046,5.046,0,0,1-56.59-1.37a6.27,6.27,0,0,1-1.439-4.377v-.2A6.2,6.2,0,0,1-56.6-10.237a4.987,4.987,0,0,1,3.921-1.6,4.889,4.889,0,0,1,3.5,1.241,4.393,4.393,0,0,1,1.337,3.3h-2.911a2.116,2.116,0,0,0-.559-1.466,1.868,1.868,0,0,0-1.418-.564,1.871,1.871,0,0,0-1.638.79,4.57,4.57,0,0,0-.553,2.562v.322a4.628,4.628,0,0,0,.548,2.578A1.894,1.894,0,0,0-52.712-2.288Zm13.17-6.424A8.434,8.434,0,0,0-40.659-8.8a2.274,2.274,0,0,0-2.31,1.192V0h-3.1V-11.623h2.933l.086,1.386a2.877,2.877,0,0,1,2.589-1.6,3.253,3.253,0,0,1,.967.14ZM-34.772,0h-3.115V-11.623h3.115Zm-3.3-14.631A1.529,1.529,0,0,1-37.6-15.78a1.755,1.755,0,0,1,1.273-.451,1.759,1.759,0,0,1,1.268.451,1.52,1.52,0,0,1,.473,1.149,1.524,1.524,0,0,1-.478,1.16,1.764,1.764,0,0,1-1.262.451,1.764,1.764,0,0,1-1.262-.451A1.524,1.524,0,0,1-38.07-14.631Zm9.571.15v2.857h1.987v2.277H-28.5v5.8a1.385,1.385,0,0,0,.247.924,1.241,1.241,0,0,0,.945.279,4.951,4.951,0,0,0,.913-.075V-.064a6.391,6.391,0,0,1-1.88.279q-3.266,0-3.33-3.3V-9.346h-1.7v-2.277h1.7V-14.48Zm2.911,8.562A6.893,6.893,0,0,1-24.922-9,4.876,4.876,0,0,1-23-11.1a5.594,5.594,0,0,1,2.906-.741,5.293,5.293,0,0,1,3.84,1.439,5.777,5.777,0,0,1,1.66,3.91l.021.795A6.075,6.075,0,0,1-16.07-1.4,5.19,5.19,0,0,1-20.077.215,5.216,5.216,0,0,1-24.089-1.4a6.182,6.182,0,0,1-1.5-4.383Zm3.1.226a4.333,4.333,0,0,0,.623,2.53,2.056,2.056,0,0,0,1.783.875,2.061,2.061,0,0,0,1.762-.865,4.741,4.741,0,0,0,.634-2.766,4.29,4.29,0,0,0-.634-2.514A2.061,2.061,0,0,0-20.1-9.324a2.028,2.028,0,0,0-1.762.886A4.821,4.821,0,0,0-22.483-5.693Zm16.35-3.019A8.434,8.434,0,0,0-7.251-8.8a2.274,2.274,0,0,0-2.31,1.192V0h-3.1V-11.623h2.933l.086,1.386a2.877,2.877,0,0,1,2.589-1.6,3.253,3.253,0,0,1,.967.14ZM1.074-6.349a16.608,16.608,0,0,1,.65-4.662,13.543,13.543,0,0,1,1.939-4.061,8.249,8.249,0,0,1,2.675-2.578l.408,1.311a8.556,8.556,0,0,0-2.573,3.674,15.927,15.927,0,0,0-1.1,5.532l-.011.913A16.01,16.01,0,0,0,4.576.978a8.6,8.6,0,0,0,2.17,2.857L6.338,5.049A8.514,8.514,0,0,1,3.609,2.385,14.932,14.932,0,0,1,1.074-6.349ZM13.492.215A5.078,5.078,0,0,1,9.646-1.337,5.761,5.761,0,0,1,8.164-5.489v-.365a6.975,6.975,0,0,1,.661-3.088,5.154,5.154,0,0,1,1.848-2.127,4.645,4.645,0,0,1,2.573-.768,4.353,4.353,0,0,1,3.523,1.493,6.465,6.465,0,0,1,1.257,4.275v.827H10.151a4.132,4.132,0,0,0,1,2.777A3.157,3.157,0,0,0,13.6-1.407a3.461,3.461,0,0,0,1.783-.43,4.48,4.48,0,0,0,1.278-1.139l1.214.945A4.881,4.881,0,0,1,13.492.215Zm-.247-10.42a2.651,2.651,0,0,0-2.02.875,4.255,4.255,0,0,0-1.01,2.455h5.822v-.15a3.785,3.785,0,0,0-.816-2.347A2.5,2.5,0,0,0,13.245-10.205Zm8.948-1.418.054,1.289a4.292,4.292,0,0,1,3.448-1.5,3.323,3.323,0,0,1,3.319,1.869,4.4,4.4,0,0,1,1.509-1.354,4.458,4.458,0,0,1,2.2-.516q3.824,0,3.889,4.05V0H34.622V-7.67a2.669,2.669,0,0,0-.569-1.864,2.507,2.507,0,0,0-1.912-.618,2.635,2.635,0,0,0-1.837.661,2.68,2.68,0,0,0-.849,1.778V0h-2V-7.616a2.217,2.217,0,0,0-2.481-2.535A2.659,2.659,0,0,0,22.3-8.486V0H20.313V-11.623ZM41.766,0H39.778V-11.623h1.987ZM39.617-14.706a1.186,1.186,0,0,1,.3-.816,1.109,1.109,0,0,1,.875-.333,1.126,1.126,0,0,1,.881.333,1.174,1.174,0,0,1,.3.816,1.135,1.135,0,0,1-.3.806,1.147,1.147,0,0,1-.881.322,1.129,1.129,0,0,1-.875-.322A1.147,1.147,0,0,1,39.617-14.706Zm12.1,11.623a1.463,1.463,0,0,0-.607-1.251A5.842,5.842,0,0,0,48.99-5.1a10.005,10.005,0,0,1-2.4-.773A3.408,3.408,0,0,1,45.284-6.95a2.57,2.57,0,0,1-.424-1.482,3.015,3.015,0,0,1,1.208-2.417,4.72,4.72,0,0,1,3.088-.988,4.857,4.857,0,0,1,3.207,1.021,3.241,3.241,0,0,1,1.23,2.61h-2A1.794,1.794,0,0,0,50.9-9.614a2.6,2.6,0,0,0-1.746-.591,2.717,2.717,0,0,0-1.7.473A1.488,1.488,0,0,0,46.847-8.5a1.205,1.205,0,0,0,.569,1.085,7,7,0,0,0,2.057.7,10.719,10.719,0,0,1,2.412.795,3.518,3.518,0,0,1,1.37,1.112A2.734,2.734,0,0,1,53.7-3.223a2.975,2.975,0,0,1-1.246,2.5,5.227,5.227,0,0,1-3.233.94A5.853,5.853,0,0,1,46.75-.279a4.018,4.018,0,0,1-1.681-1.38,3.327,3.327,0,0,1-.607-1.917h1.987a2.058,2.058,0,0,0,.8,1.584,3.1,3.1,0,0,0,1.971.585,3.2,3.2,0,0,0,1.81-.457A1.4,1.4,0,0,0,51.713-3.083Zm4.05-2.836a6.865,6.865,0,0,1,.671-3.072A5.008,5.008,0,0,1,58.3-11.1a5.088,5.088,0,0,1,2.734-.741,4.9,4.9,0,0,1,3.84,1.644,6.323,6.323,0,0,1,1.466,4.372v.14a6.925,6.925,0,0,1-.65,3.045,4.935,4.935,0,0,1-1.858,2.1,5.146,5.146,0,0,1-2.777.752,4.889,4.889,0,0,1-3.83-1.644,6.291,6.291,0,0,1-1.466-4.351Zm2,.236a4.972,4.972,0,0,0,.9,3.1,2.871,2.871,0,0,0,2.4,1.171,2.853,2.853,0,0,0,2.406-1.187,5.437,5.437,0,0,0,.892-3.325,4.964,4.964,0,0,0-.908-3.1,2.886,2.886,0,0,0-2.412-1.187,2.854,2.854,0,0,0-2.374,1.171A5.4,5.4,0,0,0,57.761-5.683ZM74.454-9.84a5.955,5.955,0,0,0-.978-.075A2.619,2.619,0,0,0,70.823-8.25V0H68.836V-11.623H70.77L70.8-10.28a3.094,3.094,0,0,1,2.771-1.558,2.03,2.03,0,0,1,.881.15Zm6.413,3.6a16.616,16.616,0,0,1-.628,4.592,13.579,13.579,0,0,1-1.923,4.055A8.425,8.425,0,0,1,75.6,5.049l-.419-1.214A8.636,8.636,0,0,0,77.843-.1a17.032,17.032,0,0,0,1.026-5.924V-6.37a17.684,17.684,0,0,0-.473-4.195,14.157,14.157,0,0,0-1.316-3.475,8.027,8.027,0,0,0-1.9-2.4l.419-1.214a8.392,8.392,0,0,1,2.7,2.621,13.608,13.608,0,0,1,1.923,4.05A17,17,0,0,1,80.867-6.241Z" transform="translate(390 4415)" fill="#26c179"/>
      <path id="Trazado_17906" data-name="Trazado 17906" d="M-64.464-5.21a5.535,5.535,0,0,1-1.864,3.975A6.546,6.546,0,0,1-70.759.215,5.886,5.886,0,0,1-75.491-1.81a8.3,8.3,0,0,1-1.724-5.559v-.956A9.376,9.376,0,0,1-76.42-12.3a5.957,5.957,0,0,1,2.272-2.637,6.364,6.364,0,0,1,3.432-.918,6.376,6.376,0,0,1,4.361,1.45,5.948,5.948,0,0,1,1.912,4.071h-3.223a3.266,3.266,0,0,0-.843-2.2,3.123,3.123,0,0,0-2.208-.682,2.738,2.738,0,0,0-2.412,1.155,6.472,6.472,0,0,0-.822,3.583v1.182a6.927,6.927,0,0,0,.768,3.706,2.687,2.687,0,0,0,2.422,1.171A3.182,3.182,0,0,0-68.53-3.1a3.081,3.081,0,0,0,.843-2.111Zm1.429-.709A6.893,6.893,0,0,1-62.369-9,4.876,4.876,0,0,1-60.452-11.1a5.594,5.594,0,0,1,2.906-.741,5.293,5.293,0,0,1,3.84,1.439,5.777,5.777,0,0,1,1.66,3.91l.021.795A6.075,6.075,0,0,1-53.518-1.4,5.19,5.19,0,0,1-57.524.215,5.216,5.216,0,0,1-61.537-1.4a6.182,6.182,0,0,1-1.5-4.383Zm3.1.226a4.333,4.333,0,0,0,.623,2.53,2.056,2.056,0,0,0,1.783.875,2.061,2.061,0,0,0,1.762-.865,4.741,4.741,0,0,0,.634-2.766,4.29,4.29,0,0,0-.634-2.514,2.061,2.061,0,0,0-1.783-.892,2.028,2.028,0,0,0-1.762.886A4.821,4.821,0,0,0-59.931-5.693Zm3-10.807h3.384l-2.976,3.33H-59.05ZM-50.6-5.9a7,7,0,0,1,1.219-4.329,3.956,3.956,0,0,1,3.335-1.611,3.56,3.56,0,0,1,2.8,1.268V-16.5h3.115V0h-2.8l-.15-1.235A3.653,3.653,0,0,1-46.062.215,3.945,3.945,0,0,1-49.355-1.4,7.23,7.23,0,0,1-50.6-5.9Zm3.1.226a4.576,4.576,0,0,0,.569,2.5,1.855,1.855,0,0,0,1.654.87,2.078,2.078,0,0,0,2.03-1.214V-8.1a2.048,2.048,0,0,0-2.009-1.214Q-47.491-9.313-47.491-5.672ZM-34.439,0h-3.115V-11.623h3.115Zm-3.3-14.631a1.529,1.529,0,0,1,.467-1.149A1.755,1.755,0,0,1-36-16.231a1.759,1.759,0,0,1,1.268.451,1.52,1.52,0,0,1,.473,1.149,1.524,1.524,0,0,1-.478,1.16A1.764,1.764,0,0,1-36-13.02a1.764,1.764,0,0,1-1.262-.451A1.524,1.524,0,0,1-37.737-14.631Zm5.4,8.733a6.812,6.812,0,0,1,1.273-4.308,4.125,4.125,0,0,1,3.432-1.633,3.617,3.617,0,0,1,2.976,1.311l.129-1.1h2.814V-.387A4.968,4.968,0,0,1-22.4,2.267a4.45,4.45,0,0,1-1.95,1.719,6.854,6.854,0,0,1-2.943.591,6.373,6.373,0,0,1-2.492-.51A4.423,4.423,0,0,1-31.625,2.75L-30.25.859a3.637,3.637,0,0,0,2.814,1.3A2.662,2.662,0,0,0-25.513,1.5a2.478,2.478,0,0,0,.688-1.875V-1A3.591,3.591,0,0,1-27.65.215,4.114,4.114,0,0,1-31.04-1.423a6.81,6.81,0,0,1-1.294-4.345Zm3.1.226A4.23,4.23,0,0,0-28.6-3.2a2.017,2.017,0,0,0,1.74.9,2.157,2.157,0,0,0,2.03-1.063V-8.25a2.152,2.152,0,0,0-2.009-1.063A2.03,2.03,0,0,0-28.59-8.4,4.768,4.768,0,0,0-29.229-5.672Zm9.421-.247A6.893,6.893,0,0,1-19.143-9,4.876,4.876,0,0,1-17.225-11.1a5.594,5.594,0,0,1,2.906-.741,5.293,5.293,0,0,1,3.84,1.439,5.777,5.777,0,0,1,1.66,3.91l.021.795A6.075,6.075,0,0,1-10.291-1.4,5.19,5.19,0,0,1-14.3.215,5.216,5.216,0,0,1-18.31-1.4a6.182,6.182,0,0,1-1.5-4.383Zm3.1.226a4.333,4.333,0,0,0,.623,2.53,2.056,2.056,0,0,0,1.783.875,2.061,2.061,0,0,0,1.762-.865A4.741,4.741,0,0,0-11.9-5.919a4.29,4.29,0,0,0-.634-2.514,2.061,2.061,0,0,0-1.783-.892,2.028,2.028,0,0,0-1.762.886A4.821,4.821,0,0,0-16.7-5.693Zm15.533-.655a16.608,16.608,0,0,1,.65-4.662,13.543,13.543,0,0,1,1.939-4.061,8.249,8.249,0,0,1,2.675-2.578L4.5-16.339a8.556,8.556,0,0,0-2.573,3.674,15.927,15.927,0,0,0-1.1,5.532L.816-6.22A16.01,16.01,0,0,0,2.331.978,8.6,8.6,0,0,0,4.5,3.835L4.093,5.049A8.514,8.514,0,0,1,1.364,2.385,14.932,14.932,0,0,1-1.171-6.349ZM8.583,0H6.6V-16.5H8.583Zm8,.215A5.078,5.078,0,0,1,12.74-1.337a5.761,5.761,0,0,1-1.482-4.152v-.365a6.975,6.975,0,0,1,.661-3.088,5.154,5.154,0,0,1,1.848-2.127,4.645,4.645,0,0,1,2.573-.768,4.353,4.353,0,0,1,3.523,1.493,6.465,6.465,0,0,1,1.257,4.275v.827H13.245a4.132,4.132,0,0,0,1,2.777,3.157,3.157,0,0,0,2.444,1.058,3.461,3.461,0,0,0,1.783-.43,4.48,4.48,0,0,0,1.278-1.139l1.214.945A4.881,4.881,0,0,1,16.586.215Zm-.247-10.42a2.651,2.651,0,0,0-2.02.875,4.255,4.255,0,0,0-1.01,2.455h5.822v-.15a3.785,3.785,0,0,0-.816-2.347A2.5,2.5,0,0,0,16.339-10.205ZM25.3-11.623l.064,1.461a4.236,4.236,0,0,1,3.48-1.676q3.685,0,3.717,4.157V0H30.572V-7.691A2.676,2.676,0,0,0,30-9.55a2.3,2.3,0,0,0-1.756-.6,2.868,2.868,0,0,0-1.7.516,3.5,3.5,0,0,0-1.139,1.354V0H23.418V-11.623Zm9.786,5.715a6.831,6.831,0,0,1,1.257-4.324,4.019,4.019,0,0,1,3.33-1.606,4,4,0,0,1,3.319,1.5l.1-1.289H44.9V-.279a4.728,4.728,0,0,1-1.337,3.556,4.935,4.935,0,0,1-3.593,1.3,5.978,5.978,0,0,1-2.46-.537,4.235,4.235,0,0,1-1.837-1.472l1.031-1.192a3.886,3.886,0,0,0,3.126,1.579,3.045,3.045,0,0,0,2.261-.816,3.12,3.12,0,0,0,.811-2.3v-1A4.085,4.085,0,0,1,39.649.215a3.97,3.97,0,0,1-3.3-1.644A7.182,7.182,0,0,1,35.084-5.908Zm2,.226a5.211,5.211,0,0,0,.806,3.088,2.618,2.618,0,0,0,2.256,1.123A2.911,2.911,0,0,0,42.9-3.18V-8.486a2.945,2.945,0,0,0-2.739-1.665A2.641,2.641,0,0,0,37.9-9.023,5.676,5.676,0,0,0,37.082-5.683ZM55.075-1.149A4.221,4.221,0,0,1,51.67.215a3.613,3.613,0,0,1-2.831-1.08,4.673,4.673,0,0,1-.983-3.2v-7.562h1.987v7.509q0,2.643,2.148,2.643a2.975,2.975,0,0,0,3.029-1.7v-8.454h1.987V0H55.118ZM67.2,0a4.175,4.175,0,0,1-.279-1.225A4.434,4.434,0,0,1,63.615.215,4.1,4.1,0,0,1,60.8-.757a3.145,3.145,0,0,1-1.1-2.465,3.286,3.286,0,0,1,1.38-2.82,6.508,6.508,0,0,1,3.883-1h1.934V-7.96a2.232,2.232,0,0,0-.623-1.66,2.5,2.5,0,0,0-1.837-.618,2.9,2.9,0,0,0-1.783.537,1.583,1.583,0,0,0-.72,1.3h-2a2.743,2.743,0,0,1,.618-1.681,4.216,4.216,0,0,1,1.676-1.284,5.638,5.638,0,0,1,2.326-.473,4.6,4.6,0,0,1,3.147,1,3.623,3.623,0,0,1,1.182,2.766v5.35a6.54,6.54,0,0,0,.408,2.546V0Zm-3.3-1.515A3.493,3.493,0,0,0,65.678-2a2.924,2.924,0,0,0,1.214-1.257V-5.64H65.334q-3.652,0-3.652,2.138A1.809,1.809,0,0,0,62.3-2.041,2.4,2.4,0,0,0,63.905-1.515ZM76.581-6.241a16.616,16.616,0,0,1-.628,4.592A13.579,13.579,0,0,1,74.03,2.406a8.425,8.425,0,0,1-2.712,2.643L70.9,3.835A8.636,8.636,0,0,0,73.557-.1a17.032,17.032,0,0,0,1.026-5.924V-6.37a17.684,17.684,0,0,0-.473-4.195,14.157,14.157,0,0,0-1.316-3.475,8.027,8.027,0,0,0-1.9-2.4l.419-1.214a8.392,8.392,0,0,1,2.7,2.621,13.608,13.608,0,0,1,1.923,4.05A17,17,0,0,1,76.581-6.241Z" transform="translate(700 4205)" fill="#09347b"/>
      <path id="Trazado_17907" data-name="Trazado 17907" d="M-95.675-5.726h-2.567V0h-3.223V-15.641h5.812a6.57,6.57,0,0,1,4.275,1.235,4.264,4.264,0,0,1,1.5,3.491,4.812,4.812,0,0,1-.693,2.669,4.725,4.725,0,0,1-2.1,1.7L-89.284-.15V0h-3.459Zm-2.567-2.61h2.6a2.662,2.662,0,0,0,1.88-.618,2.208,2.208,0,0,0,.666-1.7,2.363,2.363,0,0,0-.628-1.74,2.612,2.612,0,0,0-1.928-.634h-2.589ZM-82.28.215a5.706,5.706,0,0,1-4.163-1.568,5.575,5.575,0,0,1-1.606-4.179v-.3a7.021,7.021,0,0,1,.677-3.131,4.967,4.967,0,0,1,1.917-2.127,5.382,5.382,0,0,1,2.831-.747,4.824,4.824,0,0,1,3.754,1.5A6.111,6.111,0,0,1-77.5-6.069V-4.8h-7.4a2.884,2.884,0,0,0,.908,1.826,2.744,2.744,0,0,0,1.917.688,3.351,3.351,0,0,0,2.8-1.3l1.525,1.708A4.66,4.66,0,0,1-79.637-.338,6.2,6.2,0,0,1-82.28.215Zm-.354-9.539a1.944,1.944,0,0,0-1.5.623,3.219,3.219,0,0,0-.736,1.783h4.318v-.247a2.3,2.3,0,0,0-.559-1.6A2.006,2.006,0,0,0-82.634-9.324ZM-74.889,0V-9.346h-1.729v-2.277h1.729v-.988a4.013,4.013,0,0,1,1.123-3.035,4.347,4.347,0,0,1,3.142-1.08,7.257,7.257,0,0,1,1.579.215l-.032,2.406a3.958,3.958,0,0,0-.945-.1q-1.751,0-1.751,1.644v.935h2.31v2.277h-2.31V0Zm12.128.215a5.706,5.706,0,0,1-4.163-1.568A5.575,5.575,0,0,1-68.53-5.532v-.3a7.021,7.021,0,0,1,.677-3.131,4.967,4.967,0,0,1,1.917-2.127,5.382,5.382,0,0,1,2.831-.747,4.824,4.824,0,0,1,3.754,1.5,6.111,6.111,0,0,1,1.37,4.265V-4.8h-7.4a2.884,2.884,0,0,0,.908,1.826,2.744,2.744,0,0,0,1.917.688,3.351,3.351,0,0,0,2.8-1.3l1.525,1.708A4.66,4.66,0,0,1-60.119-.338,6.2,6.2,0,0,1-62.761.215Zm-.354-9.539a1.944,1.944,0,0,0-1.5.623,3.219,3.219,0,0,0-.736,1.783h4.318v-.247a2.3,2.3,0,0,0-.559-1.6A2.006,2.006,0,0,0-63.116-9.324Zm13.428.612A8.434,8.434,0,0,0-50.805-8.8a2.274,2.274,0,0,0-2.31,1.192V0h-3.1V-11.623h2.933l.086,1.386a2.877,2.877,0,0,1,2.589-1.6,3.253,3.253,0,0,1,.967.14ZM-43.049.215a5.706,5.706,0,0,1-4.163-1.568,5.575,5.575,0,0,1-1.606-4.179v-.3a7.021,7.021,0,0,1,.677-3.131,4.967,4.967,0,0,1,1.917-2.127,5.382,5.382,0,0,1,2.831-.747,4.824,4.824,0,0,1,3.754,1.5,6.111,6.111,0,0,1,1.37,4.265V-4.8h-7.4a2.884,2.884,0,0,0,.908,1.826,2.744,2.744,0,0,0,1.917.688,3.351,3.351,0,0,0,2.8-1.3l1.525,1.708A4.66,4.66,0,0,1-40.407-.338,6.2,6.2,0,0,1-43.049.215ZM-43.4-9.324a1.944,1.944,0,0,0-1.5.623,3.219,3.219,0,0,0-.736,1.783h4.318v-.247a2.3,2.3,0,0,0-.559-1.6A2.006,2.006,0,0,0-43.4-9.324Zm9.754-2.3.1,1.343a4.058,4.058,0,0,1,3.341-1.558,3.372,3.372,0,0,1,2.75,1.085,5.062,5.062,0,0,1,.924,3.244V0h-3.1V-7.434a2.014,2.014,0,0,0-.43-1.434A1.924,1.924,0,0,0-31.5-9.313,2.136,2.136,0,0,0-33.467-8.2V0h-3.1V-11.623Zm13.181-2.857v2.857h1.987v2.277h-1.987v5.8a1.385,1.385,0,0,0,.247.924,1.241,1.241,0,0,0,.945.279,4.951,4.951,0,0,0,.913-.075V-.064a6.391,6.391,0,0,1-1.88.279q-3.266,0-3.33-3.3V-9.346h-1.7v-2.277h1.7V-14.48ZM-11.4.215a5.706,5.706,0,0,1-4.163-1.568,5.575,5.575,0,0,1-1.606-4.179v-.3a7.021,7.021,0,0,1,.677-3.131,4.967,4.967,0,0,1,1.917-2.127,5.382,5.382,0,0,1,2.831-.747,4.824,4.824,0,0,1,3.754,1.5,6.111,6.111,0,0,1,1.37,4.265V-4.8h-7.4a2.884,2.884,0,0,0,.908,1.826,2.744,2.744,0,0,0,1.917.688,3.351,3.351,0,0,0,2.8-1.3L-6.87-1.88A4.66,4.66,0,0,1-8.76-.338,6.2,6.2,0,0,1-11.4.215Zm-.354-9.539a1.944,1.944,0,0,0-1.5.623,3.219,3.219,0,0,0-.736,1.783h4.318v-.247a2.3,2.3,0,0,0-.559-1.6A2.006,2.006,0,0,0-11.757-9.324ZM.854-6.349a16.608,16.608,0,0,1,.65-4.662,13.543,13.543,0,0,1,1.939-4.061,8.249,8.249,0,0,1,2.675-2.578l.408,1.311a8.556,8.556,0,0,0-2.573,3.674,15.927,15.927,0,0,0-1.1,5.532l-.011.913A16.01,16.01,0,0,0,4.356.978a8.6,8.6,0,0,0,2.17,2.857L6.118,5.049A8.514,8.514,0,0,1,3.389,2.385,14.932,14.932,0,0,1,.854-6.349ZM20.265-4.963a5.754,5.754,0,0,1-1.832,3.83,6,6,0,0,1-4.1,1.348A5.511,5.511,0,0,1,9.894-1.772,8,8,0,0,1,8.223-7.09v-1.5A8.911,8.911,0,0,1,9-12.429a5.817,5.817,0,0,1,2.208-2.541,6.147,6.147,0,0,1,3.309-.886,5.652,5.652,0,0,1,4,1.391,5.823,5.823,0,0,1,1.751,3.851H18.192a4.474,4.474,0,0,0-1.166-2.707,3.533,3.533,0,0,0-2.508-.838,3.691,3.691,0,0,0-3.1,1.461A6.7,6.7,0,0,0,10.3-8.54v1.515a6.89,6.89,0,0,0,1.063,4.05,3.437,3.437,0,0,0,2.976,1.5,3.969,3.969,0,0,0,2.637-.779,4.322,4.322,0,0,0,1.219-2.712Zm1.977-.956a6.865,6.865,0,0,1,.671-3.072A5.008,5.008,0,0,1,24.782-11.1a5.088,5.088,0,0,1,2.734-.741,4.9,4.9,0,0,1,3.84,1.644,6.323,6.323,0,0,1,1.466,4.372v.14a6.925,6.925,0,0,1-.65,3.045,4.935,4.935,0,0,1-1.858,2.1,5.146,5.146,0,0,1-2.777.752,4.889,4.889,0,0,1-3.83-1.644,6.291,6.291,0,0,1-1.466-4.351Zm2,.236a4.972,4.972,0,0,0,.9,3.1,2.871,2.871,0,0,0,2.4,1.171,2.853,2.853,0,0,0,2.406-1.187,5.437,5.437,0,0,0,.892-3.325,4.964,4.964,0,0,0-.908-3.1,2.886,2.886,0,0,0-2.412-1.187,2.854,2.854,0,0,0-2.374,1.171A5.4,5.4,0,0,0,24.24-5.683Zm12.955-5.94.064,1.461a4.236,4.236,0,0,1,3.48-1.676q3.685,0,3.717,4.157V0H42.469V-7.691a2.676,2.676,0,0,0-.575-1.858,2.3,2.3,0,0,0-1.756-.6,2.868,2.868,0,0,0-1.7.516A3.5,3.5,0,0,0,37.3-8.282V0H35.315V-11.623ZM50.15-14.437v2.814h2.17v1.536H50.15v7.208a1.61,1.61,0,0,0,.29,1.047,1.221,1.221,0,0,0,.988.349,4.811,4.811,0,0,0,.945-.129V0a5.761,5.761,0,0,1-1.525.215,2.475,2.475,0,0,1-2.009-.806,3.461,3.461,0,0,1-.677-2.288v-7.208H46.046v-1.536h2.116v-2.814ZM59.463.215a5.078,5.078,0,0,1-3.846-1.552,5.761,5.761,0,0,1-1.482-4.152v-.365A6.975,6.975,0,0,1,54.8-8.943a5.154,5.154,0,0,1,1.848-2.127,4.645,4.645,0,0,1,2.573-.768,4.353,4.353,0,0,1,3.523,1.493A6.465,6.465,0,0,1,64-6.069v.827H56.123a4.132,4.132,0,0,0,1,2.777,3.157,3.157,0,0,0,2.444,1.058,3.461,3.461,0,0,0,1.783-.43,4.48,4.48,0,0,0,1.278-1.139l1.214.945A4.881,4.881,0,0,1,59.463.215Zm-.247-10.42a2.651,2.651,0,0,0-2.02.875,4.255,4.255,0,0,0-1.01,2.455h5.822v-.15a3.785,3.785,0,0,0-.816-2.347A2.5,2.5,0,0,0,59.216-10.205ZM70.195-7.38l2.578-4.243h2.32l-3.8,5.747L75.211,0h-2.3L70.227-4.351,67.542,0h-2.31l3.921-5.876-3.8-5.747h2.3Zm9.7-7.058v2.814h2.17v1.536H79.9v7.208a1.61,1.61,0,0,0,.29,1.047,1.221,1.221,0,0,0,.988.349,4.811,4.811,0,0,0,.945-.129V0a5.761,5.761,0,0,1-1.525.215,2.475,2.475,0,0,1-2.009-.806,3.461,3.461,0,0,1-.677-2.288v-7.208H75.792v-1.536h2.116v-2.814Zm3.749,8.519a6.865,6.865,0,0,1,.671-3.072A5.009,5.009,0,0,1,86.185-11.1a5.088,5.088,0,0,1,2.734-.741,4.9,4.9,0,0,1,3.84,1.644,6.323,6.323,0,0,1,1.466,4.372v.14a6.925,6.925,0,0,1-.65,3.045,4.935,4.935,0,0,1-1.858,2.1A5.147,5.147,0,0,1,88.94.215a4.889,4.889,0,0,1-3.83-1.644,6.291,6.291,0,0,1-1.466-4.351Zm2,.236a4.972,4.972,0,0,0,.9,3.1,2.871,2.871,0,0,0,2.4,1.171,2.853,2.853,0,0,0,2.406-1.187,5.437,5.437,0,0,0,.892-3.325,4.964,4.964,0,0,0-.908-3.1,2.886,2.886,0,0,0-2.412-1.187,2.854,2.854,0,0,0-2.374,1.171A5.4,5.4,0,0,0,85.642-5.683ZM101.3-6.241a16.616,16.616,0,0,1-.628,4.592,13.579,13.579,0,0,1-1.923,4.055,8.425,8.425,0,0,1-2.712,2.643l-.419-1.214A8.636,8.636,0,0,0,98.28-.1a17.032,17.032,0,0,0,1.026-5.924V-6.37a17.684,17.684,0,0,0-.473-4.195,14.157,14.157,0,0,0-1.316-3.475,8.027,8.027,0,0,0-1.9-2.4l.419-1.214a8.392,8.392,0,0,1,2.7,2.621,13.608,13.608,0,0,1,1.923,4.05A17,17,0,0,1,101.3-6.241Z" transform="translate(700 4614)" fill="#09347b"/>
      <path id="Trazado_17908" data-name="Trazado 17908" d="M-36.491-15.641-32.474-4.3l4-11.344h4.232V0h-3.233V-4.275l.322-7.38L-31.378,0h-2.213L-37.8-11.645l.322,7.369V0H-40.7V-15.641ZM-16.285.215a5.706,5.706,0,0,1-4.163-1.568,5.575,5.575,0,0,1-1.606-4.179v-.3a7.021,7.021,0,0,1,.677-3.131,4.967,4.967,0,0,1,1.917-2.127,5.382,5.382,0,0,1,2.831-.747,4.824,4.824,0,0,1,3.754,1.5A6.111,6.111,0,0,1-11.5-6.069V-4.8h-7.4A2.884,2.884,0,0,0-18-2.976a2.744,2.744,0,0,0,1.917.688,3.351,3.351,0,0,0,2.8-1.3l1.525,1.708A4.66,4.66,0,0,1-13.643-.338,6.2,6.2,0,0,1-16.285.215Zm-.354-9.539a1.944,1.944,0,0,0-1.5.623,3.219,3.219,0,0,0-.736,1.783h4.318v-.247a2.3,2.3,0,0,0-.559-1.6A2.006,2.006,0,0,0-16.64-9.324Zm9.754-2.3.1,1.343a4.058,4.058,0,0,1,3.341-1.558A3.372,3.372,0,0,1-.7-10.753,5.062,5.062,0,0,1,.226-7.509V0h-3.1V-7.434a2.014,2.014,0,0,0-.43-1.434,1.924,1.924,0,0,0-1.429-.446A2.136,2.136,0,0,0-6.7-8.2V0h-3.1V-11.623ZM8.873-3.212a1,1,0,0,0-.564-.9A6.406,6.406,0,0,0,6.5-4.694q-4.146-.87-4.146-3.523A3.194,3.194,0,0,1,3.636-10.8a5.178,5.178,0,0,1,3.357-1.037,5.573,5.573,0,0,1,3.54,1.042,3.284,3.284,0,0,1,1.327,2.707h-3.1a1.5,1.5,0,0,0-.43-1.1,1.818,1.818,0,0,0-1.343-.435,1.858,1.858,0,0,0-1.214.354,1.119,1.119,0,0,0-.43.9.957.957,0,0,0,.489.833,5.028,5.028,0,0,0,1.649.548,13.468,13.468,0,0,1,1.955.521,3.212,3.212,0,0,1,2.46,3.126A3.032,3.032,0,0,1,10.527-.768,5.885,5.885,0,0,1,7,.215,6.147,6.147,0,0,1,4.41-.306,4.353,4.353,0,0,1,2.632-1.735,3.32,3.32,0,0,1,1.987-3.7H4.931a1.621,1.621,0,0,0,.612,1.268,2.429,2.429,0,0,0,1.525.44,2.248,2.248,0,0,0,1.348-.338A1.053,1.053,0,0,0,8.873-3.212ZM20.625,0a3.448,3.448,0,0,1-.312-1.042A3.756,3.756,0,0,1,17.381.215,4.127,4.127,0,0,1,14.55-.773a3.178,3.178,0,0,1-1.123-2.492A3.285,3.285,0,0,1,14.8-6.1a6.758,6.758,0,0,1,3.958-1h1.429v-.666a1.915,1.915,0,0,0-.414-1.289,1.627,1.627,0,0,0-1.305-.483,1.85,1.85,0,0,0-1.23.376,1.277,1.277,0,0,0-.446,1.031h-3.1A3.118,3.118,0,0,1,14.309-10a4.118,4.118,0,0,1,1.762-1.348,6.42,6.42,0,0,1,2.557-.489,5.073,5.073,0,0,1,3.411,1.08A3.777,3.777,0,0,1,23.3-7.724v5.038a5.557,5.557,0,0,0,.462,2.5V0ZM18.058-2.159a2.674,2.674,0,0,0,1.268-.306,2.011,2.011,0,0,0,.859-.822v-2h-1.16q-2.331,0-2.481,1.611l-.011.183a1.243,1.243,0,0,0,.408.956A1.586,1.586,0,0,0,18.058-2.159Zm10.914-9.464V.634a4.158,4.158,0,0,1-1.021,2.992,3.879,3.879,0,0,1-2.943,1.069,6.312,6.312,0,0,1-1.536-.183V2.052a5.827,5.827,0,0,0,.978.1q1.407,0,1.407-1.493V-11.623Zm-3.362-3.008a1.529,1.529,0,0,1,.467-1.149,1.755,1.755,0,0,1,1.273-.451,1.755,1.755,0,0,1,1.273.451,1.529,1.529,0,0,1,.467,1.149,1.524,1.524,0,0,1-.478,1.16,1.764,1.764,0,0,1-1.262.451,1.764,1.764,0,0,1-1.262-.451A1.524,1.524,0,0,1,25.609-14.631ZM36.749.215a5.706,5.706,0,0,1-4.163-1.568A5.575,5.575,0,0,1,30.98-5.532v-.3a7.021,7.021,0,0,1,.677-3.131,4.967,4.967,0,0,1,1.917-2.127,5.382,5.382,0,0,1,2.831-.747,4.824,4.824,0,0,1,3.754,1.5,6.111,6.111,0,0,1,1.37,4.265V-4.8h-7.4a2.884,2.884,0,0,0,.908,1.826,2.744,2.744,0,0,0,1.917.688,3.351,3.351,0,0,0,2.8-1.3L41.282-1.88A4.66,4.66,0,0,1,39.392-.338,6.2,6.2,0,0,1,36.749.215Zm-.354-9.539a1.944,1.944,0,0,0-1.5.623,3.219,3.219,0,0,0-.736,1.783h4.318v-.247a2.3,2.3,0,0,0-.559-1.6A2.006,2.006,0,0,0,36.395-9.324Z" transform="translate(700 4415)" fill="#26c179"/>
      <path id="Trazado_17909" data-name="Trazado 17909" d="M-80.969-2.589h6.843V0H-84.192V-15.641h3.223Zm13.836,2.8A5.706,5.706,0,0,1-71.3-1.354,5.575,5.575,0,0,1-72.9-5.532v-.3a7.021,7.021,0,0,1,.677-3.131,4.967,4.967,0,0,1,1.917-2.127,5.382,5.382,0,0,1,2.831-.747,4.824,4.824,0,0,1,3.754,1.5,6.111,6.111,0,0,1,1.37,4.265V-4.8h-7.4a2.884,2.884,0,0,0,.908,1.826,2.744,2.744,0,0,0,1.917.688,3.351,3.351,0,0,0,2.8-1.3L-62.6-1.88A4.66,4.66,0,0,1-64.491-.338,6.2,6.2,0,0,1-67.133.215Zm-.354-9.539a1.944,1.944,0,0,0-1.5.623,3.219,3.219,0,0,0-.736,1.783H-65.4v-.247a2.3,2.3,0,0,0-.559-1.6A2.006,2.006,0,0,0-67.488-9.324Zm11.73,7.036a2.036,2.036,0,0,0,1.4-.473A1.656,1.656,0,0,0-53.8-4.018h2.911a3.982,3.982,0,0,1-.645,2.165A4.253,4.253,0,0,1-53.271-.328,5.43,5.43,0,0,1-55.7.215,5.046,5.046,0,0,1-59.635-1.37a6.27,6.27,0,0,1-1.439-4.377v-.2a6.2,6.2,0,0,1,1.429-4.286,4.987,4.987,0,0,1,3.921-1.6,4.889,4.889,0,0,1,3.5,1.241,4.393,4.393,0,0,1,1.337,3.3H-53.8a2.116,2.116,0,0,0-.559-1.466,1.868,1.868,0,0,0-1.418-.564,1.871,1.871,0,0,0-1.638.79,4.57,4.57,0,0,0-.553,2.562v.322a4.628,4.628,0,0,0,.548,2.578A1.894,1.894,0,0,0-55.757-2.288ZM-45.4-14.48v2.857h1.987v2.277H-45.4v5.8a1.385,1.385,0,0,0,.247.924,1.241,1.241,0,0,0,.945.279,4.951,4.951,0,0,0,.913-.075V-.064a6.391,6.391,0,0,1-1.88.279q-3.266,0-3.33-3.3V-9.346h-1.7v-2.277h1.7V-14.48Zm2.911,8.562A6.893,6.893,0,0,1-41.825-9,4.876,4.876,0,0,1-39.907-11.1,5.594,5.594,0,0,1-37-11.838a5.293,5.293,0,0,1,3.84,1.439,5.777,5.777,0,0,1,1.66,3.91l.021.795A6.075,6.075,0,0,1-32.973-1.4,5.19,5.19,0,0,1-36.98.215,5.216,5.216,0,0,1-40.992-1.4a6.182,6.182,0,0,1-1.5-4.383Zm3.1.226a4.333,4.333,0,0,0,.623,2.53,2.056,2.056,0,0,0,1.783.875,2.061,2.061,0,0,0,1.762-.865,4.741,4.741,0,0,0,.634-2.766,4.29,4.29,0,0,0-.634-2.514A2.061,2.061,0,0,0-37-9.324a2.028,2.028,0,0,0-1.762.886A4.821,4.821,0,0,0-39.386-5.693Zm16.35-3.019A8.434,8.434,0,0,0-24.154-8.8a2.274,2.274,0,0,0-2.31,1.192V0h-3.1V-11.623h2.933l.086,1.386a2.877,2.877,0,0,1,2.589-1.6,3.253,3.253,0,0,1,.967.14Zm7.208,2.363a16.608,16.608,0,0,1,.65-4.662,13.543,13.543,0,0,1,1.939-4.061,8.249,8.249,0,0,1,2.675-2.578l.408,1.311a8.556,8.556,0,0,0-2.573,3.674,15.927,15.927,0,0,0-1.1,5.532l-.011.913a16.01,16.01,0,0,0,1.515,7.2,8.6,8.6,0,0,0,2.17,2.857l-.408,1.214a8.514,8.514,0,0,1-2.729-2.664A14.932,14.932,0,0,1-15.829-6.349Zm13.643.021H-5.86V0H-7.933V-15.641h5.178a6.128,6.128,0,0,1,4.066,1.2,4.329,4.329,0,0,1,1.423,3.5,4.211,4.211,0,0,1-.79,2.546,4.713,4.713,0,0,1-2.2,1.622L3.421-.129V0H1.208ZM-5.86-8.014h3.169A3.578,3.578,0,0,0-.247-8.809a2.686,2.686,0,0,0,.908-2.127A2.828,2.828,0,0,0-.2-13.159a3.666,3.666,0,0,0-2.5-.784H-5.86Zm16,8.229A5.078,5.078,0,0,1,6.29-1.337,5.761,5.761,0,0,1,4.807-5.489v-.365a6.975,6.975,0,0,1,.661-3.088A5.154,5.154,0,0,1,7.315-11.07a4.645,4.645,0,0,1,2.573-.768,4.353,4.353,0,0,1,3.523,1.493,6.465,6.465,0,0,1,1.257,4.275v.827H6.794a4.132,4.132,0,0,0,1,2.777,3.157,3.157,0,0,0,2.444,1.058,3.461,3.461,0,0,0,1.783-.43A4.48,4.48,0,0,0,13.3-2.976l1.214.945A4.881,4.881,0,0,1,10.135.215Zm-.247-10.42a2.651,2.651,0,0,0-2.02.875,4.255,4.255,0,0,0-1.01,2.455h5.822v-.15a3.785,3.785,0,0,0-.816-2.347A2.5,2.5,0,0,0,9.888-10.205Zm11.741,8.8a2.863,2.863,0,0,0,1.858-.645,2.268,2.268,0,0,0,.881-1.611h1.88a3.6,3.6,0,0,1-.687,1.9A4.528,4.528,0,0,1,23.869-.322a4.882,4.882,0,0,1-2.24.537A4.788,4.788,0,0,1,17.854-1.37a6.311,6.311,0,0,1-1.4-4.334v-.333a7,7,0,0,1,.623-3.019,4.745,4.745,0,0,1,1.789-2.052,5.081,5.081,0,0,1,2.755-.73,4.662,4.662,0,0,1,3.25,1.171,4.185,4.185,0,0,1,1.38,3.04h-1.88a2.739,2.739,0,0,0-.854-1.853,2.657,2.657,0,0,0-1.9-.725,2.781,2.781,0,0,0-2.347,1.09,5.121,5.121,0,0,0-.833,3.153v.376a5.019,5.019,0,0,0,.827,3.094A2.8,2.8,0,0,0,21.629-1.407ZM33.306.215A5.078,5.078,0,0,1,29.46-1.337a5.761,5.761,0,0,1-1.482-4.152v-.365a6.975,6.975,0,0,1,.661-3.088,5.154,5.154,0,0,1,1.848-2.127,4.645,4.645,0,0,1,2.573-.768,4.353,4.353,0,0,1,3.523,1.493,6.465,6.465,0,0,1,1.257,4.275v.827H29.965a4.132,4.132,0,0,0,1,2.777,3.157,3.157,0,0,0,2.444,1.058,3.461,3.461,0,0,0,1.783-.43,4.48,4.48,0,0,0,1.278-1.139l1.214.945A4.881,4.881,0,0,1,33.306.215Zm-.247-10.42a2.651,2.651,0,0,0-2.02.875,4.255,4.255,0,0,0-1.01,2.455h5.822v-.15a3.785,3.785,0,0,0-.816-2.347A2.5,2.5,0,0,0,33.059-10.205Zm16.9,4.522a6.96,6.96,0,0,1-1.214,4.275A3.89,3.89,0,0,1,45.456.215a4.263,4.263,0,0,1-3.33-1.343v5.6H40.138V-11.623h1.815l.1,1.289a4.094,4.094,0,0,1,3.373-1.5,3.963,3.963,0,0,1,3.314,1.579,7.036,7.036,0,0,1,1.219,4.394Zm-1.987-.226a5.135,5.135,0,0,0-.838-3.1,2.7,2.7,0,0,0-2.3-1.139,2.921,2.921,0,0,0-2.707,1.6V-3a2.927,2.927,0,0,0,2.729,1.59,2.686,2.686,0,0,0,2.272-1.133A5.606,5.606,0,0,0,47.969-5.908Zm7.208-8.529v2.814h2.17v1.536h-2.17v7.208a1.61,1.61,0,0,0,.29,1.047,1.221,1.221,0,0,0,.988.349,4.811,4.811,0,0,0,.945-.129V0a5.761,5.761,0,0,1-1.525.215,2.475,2.475,0,0,1-2.009-.806,3.461,3.461,0,0,1-.677-2.288v-7.208H51.074v-1.536H53.19v-2.814Zm3.749,8.519A6.865,6.865,0,0,1,59.6-8.991,5.008,5.008,0,0,1,61.467-11.1a5.088,5.088,0,0,1,2.734-.741,4.9,4.9,0,0,1,3.84,1.644,6.323,6.323,0,0,1,1.466,4.372v.14a6.925,6.925,0,0,1-.65,3.045A4.935,4.935,0,0,1,67-.537a5.147,5.147,0,0,1-2.777.752,4.889,4.889,0,0,1-3.83-1.644,6.291,6.291,0,0,1-1.466-4.351Zm2,.236a4.972,4.972,0,0,0,.9,3.1,2.871,2.871,0,0,0,2.4,1.171,2.853,2.853,0,0,0,2.406-1.187,5.437,5.437,0,0,0,.892-3.325,4.964,4.964,0,0,0-.908-3.1A2.886,2.886,0,0,0,64.2-10.205a2.854,2.854,0,0,0-2.374,1.171A5.4,5.4,0,0,0,60.924-5.683ZM77.618-9.84a5.955,5.955,0,0,0-.978-.075A2.619,2.619,0,0,0,73.987-8.25V0H72V-11.623h1.934l.032,1.343a3.094,3.094,0,0,1,2.771-1.558,2.03,2.03,0,0,1,.881.15Zm6.413,3.6A16.616,16.616,0,0,1,83.4-1.649a13.579,13.579,0,0,1-1.923,4.055,8.425,8.425,0,0,1-2.712,2.643l-.419-1.214A8.636,8.636,0,0,0,81.007-.1a17.032,17.032,0,0,0,1.026-5.924V-6.37a17.684,17.684,0,0,0-.473-4.195,14.157,14.157,0,0,0-1.316-3.475,8.027,8.027,0,0,0-1.9-2.4l.419-1.214a8.392,8.392,0,0,1,2.7,2.621,13.608,13.608,0,0,1,1.923,4.05A17,17,0,0,1,84.031-6.241Z" transform="translate(1002 4415)" fill="#26c179"/>
      <g id="Grupo_14591" data-name="Grupo 14591" transform="translate(-3.502 45)">
        <circle id="Elipse_637" data-name="Elipse 637" cx="46.5" cy="46.5" r="46.5" transform="translate(342 4247)" fill="#dbffee"/>
        <g id="Grupo_14585" data-name="Grupo 14585" transform="translate(82.414 3911.824)">
          <path id="Trazado_16357" data-name="Trazado 16357" d="M323.312,393.146a1.5,1.5,0,0,1-1.206-.607c-11.106-15.014-24.823-19.574-24.96-19.62a1.5,1.5,0,0,1,.92-2.853c.6.193,14.778,4.908,26.45,20.69a1.5,1.5,0,0,1-1.2,2.39Z" transform="translate(23.896 13.232)" fill="#02255f"/>
          <path id="Trazado_16358" data-name="Trazado 16358" d="M330.683,409.785a1.5,1.5,0,0,1-.533-.1c-.466-.178-9.983-3.9-14.736-13.449a1.531,1.531,0,0,1-.917,1.132,1.5,1.5,0,0,1-1.4-.146c-.5-.334-12.161-8.357-12.088-23.442a1.5,1.5,0,0,1,.448-1.061,1.61,1.61,0,0,1,1.07-.431c.785.009,19.351.393,28.774,15.569a1.5,1.5,0,0,1-1.627,2.248l-.7-.172a31.881,31.881,0,0,1,3.2,18.506,1.5,1.5,0,0,1-1.492,1.345ZM315.02,389.38a1.5,1.5,0,0,1,1.454,1.132c2.248,8.887,9.436,13.661,12.877,15.487.5-11.336-4.776-17.349-4.832-17.413a1.5,1.5,0,0,1,1.469-2.46l.426.1c-7.315-8.594-18.317-10.443-22.36-10.836.542,9.131,6.016,15.246,8.925,17.877l.575-2.7a1.5,1.5,0,0,1,1.439-1.188Z" transform="translate(30.699 16.964)" fill="#02255f"/>
          <path id="Trazado_16359" data-name="Trazado 16359" d="M266.79,384.729a7.711,7.711,0,0,1-7.7-7.7V373.2a1.5,1.5,0,0,1,1.5-1.5h6.087a1.5,1.5,0,0,1,0,3h-4.588v2.33a4.7,4.7,0,0,0,9.408,0V357.851a8.683,8.683,0,0,1,8.673-8.675,1.5,1.5,0,1,1,0,3,5.68,5.68,0,0,0-5.674,5.676v19.176A7.712,7.712,0,0,1,266.79,384.729Z" fill="#02255f"/>
          <path id="Trazado_16360" data-name="Trazado 16360" d="M285.142,373.626H264.674a1.5,1.5,0,1,1,0-3h20.468a1.5,1.5,0,1,1,0,3Z" transform="translate(2.115 11.103)" fill="#02255f"/>
          <path id="Trazado_16361" data-name="Trazado 16361" d="M328.156,427.434H280.58a1.5,1.5,0,0,1-1.5-1.5V357.766a5.6,5.6,0,0,0-5.591-5.591,1.5,1.5,0,0,1,0-3h50.233a8.6,8.6,0,0,1,8.588,8.59v24.658a1.5,1.5,0,0,1-3,0V357.766a5.6,5.6,0,0,0-5.589-5.591H280.006a8.554,8.554,0,0,1,2.073,5.591v66.668h44.578V412.712a1.5,1.5,0,1,1,3,0v13.221A1.5,1.5,0,0,1,328.156,427.434Z" transform="translate(6.678)" fill="#02255f"/>
          <path id="Trazado_16362" data-name="Trazado 16362" d="M315.6,359.571a3.831,3.831,0,0,1-2.706-1.147c-.514-.484-.87-.448-2.381.266-1.443.68-3.624,1.707-5.715-.266-.514-.484-.87-.448-2.381.266-1.443.68-3.626,1.707-5.715-.266-.516-.484-.87-.448-2.381.266-1.445.68-3.624,1.707-5.717-.266-.514-.484-.868-.448-2.38.266-1.446.68-3.624,1.707-5.717-.266a1.5,1.5,0,1,1,2.058-2.182c.516.484.871.448,2.381-.266,1.44-.678,3.621-1.707,5.715.266.516.486.871.448,2.381-.266,1.442-.678,3.621-1.707,5.715.266.516.486.871.448,2.381-.266,1.442-.678,3.622-1.707,5.715.266.516.486.871.448,2.381-.266,1.442-.678,3.622-1.707,5.715.266.518.486.871.448,2.383-.266,1.442-.678,3.621-1.707,5.715.266a1.5,1.5,0,1,1-2.058,2.182c-.513-.486-.871-.445-2.38.266A7.2,7.2,0,0,1,315.6,359.571Z" transform="translate(10.841 3.063)" fill="#26c179"/>
          <path id="Trazado_16363" data-name="Trazado 16363" d="M315.6,364.375a3.831,3.831,0,0,1-2.706-1.147c-.514-.483-.87-.446-2.381.266-1.443.68-3.624,1.707-5.715-.266-.514-.483-.87-.446-2.381.266-1.443.68-3.626,1.707-5.715-.266-.516-.483-.87-.446-2.381.266-1.445.68-3.624,1.707-5.717-.266-.514-.483-.868-.446-2.38.266-1.446.68-3.624,1.707-5.717-.266a1.5,1.5,0,0,1,2.058-2.182c.516.484.871.449,2.381-.266,1.44-.678,3.621-1.707,5.715.266.516.486.871.449,2.381-.266,1.442-.678,3.621-1.707,5.715.266.516.486.871.449,2.381-.266,1.442-.678,3.622-1.707,5.715.266.516.486.871.449,2.381-.266,1.442-.678,3.622-1.707,5.715.266.518.486.871.449,2.383-.266,1.442-.678,3.621-1.707,5.715.266a1.5,1.5,0,0,1-2.058,2.182c-.513-.486-.871-.443-2.38.266A7.2,7.2,0,0,1,315.6,364.375Z" transform="translate(10.841 5.55)" fill="#26c179"/>
          <path id="Trazado_16364" data-name="Trazado 16364" d="M315.594,369.177a3.832,3.832,0,0,1-2.7-1.144c-.518-.489-.874-.446-2.381.264-1.442.68-3.621,1.707-5.715-.264-.518-.489-.874-.446-2.381.264-1.443.68-3.621,1.707-5.715-.264-.519-.489-.874-.446-2.381.264-1.443.68-3.623,1.707-5.717-.264-.517-.489-.873-.446-2.38.264-1.442.68-3.623,1.707-5.717-.264a1.5,1.5,0,1,1,2.058-2.184c.518.487.873.445,2.38-.266,1.443-.678,3.623-1.709,5.717.266.518.487.874.445,2.38-.266,1.442-.678,3.621-1.709,5.717.266.518.487.874.445,2.38-.266,1.443-.678,3.623-1.709,5.717.266.517.487.874.445,2.381-.266,1.443-.678,3.621-1.709,5.715.266.519.487.874.445,2.381-.266,1.443-.678,3.621-1.709,5.717.266a1.5,1.5,0,0,1-2.058,2.184c-.517-.489-.874-.446-2.38.264A7.2,7.2,0,0,1,315.594,369.177Z" transform="translate(10.841 8.036)" fill="#26c179"/>
          <path id="Trazado_16365" data-name="Trazado 16365" d="M299.4,373.983a3.834,3.834,0,0,1-2.7-1.146c-.519-.489-.874-.446-2.381.264-1.443.681-3.623,1.709-5.717-.264-.517-.489-.873-.446-2.38.264-1.442.681-3.623,1.709-5.717-.264a1.5,1.5,0,1,1,2.058-2.184c.518.487.873.446,2.38-.266,1.443-.678,3.623-1.709,5.717.266.518.487.874.446,2.38-.266,1.442-.678,3.621-1.709,5.717.266.518.487.874.446,2.38-.266,1.443-.678,3.623-1.709,5.717.266a1.5,1.5,0,1,1-2.056,2.184c-.518-.489-.874-.446-2.381.264A7.185,7.185,0,0,1,299.4,373.983Z" transform="translate(10.841 10.523)" fill="#26c179"/>
          <path id="Trazado_16366" data-name="Trazado 16366" d="M299.4,378.786a3.834,3.834,0,0,1-2.7-1.146c-.516-.487-.871-.448-2.383.264-1.442.678-3.621,1.707-5.715-.264-.514-.487-.87-.448-2.381.264-1.44.678-3.622,1.707-5.715-.264a1.5,1.5,0,1,1,2.058-2.184c.513.487.873.445,2.38-.264,1.445-.681,3.624-1.707,5.717.266.516.484.868.448,2.38-.266,1.445-.681,3.624-1.707,5.717.266.516.484.87.448,2.38-.266,1.445-.681,3.626-1.707,5.717.266a1.261,1.261,0,0,0,.451.291,1.5,1.5,0,1,1-.914,2.856,4.172,4.172,0,0,1-1.592-.965c-.518-.487-.873-.448-2.383.264A7.19,7.19,0,0,1,299.4,378.786Z" transform="translate(10.841 13.01)" fill="#26c179"/>
          <path id="Trazado_16367" data-name="Trazado 16367" d="M299.4,383.591a3.826,3.826,0,0,1-2.706-1.149c-.516-.483-.87-.446-2.381.267-1.445.681-3.624,1.706-5.717-.267-.514-.483-.868-.446-2.38.267-1.446.681-3.624,1.706-5.717-.267a1.5,1.5,0,1,1,2.058-2.181c.516.484.871.448,2.381-.266,1.44-.68,3.621-1.707,5.715.264.516.487.871.449,2.381-.264,1.442-.68,3.621-1.707,5.715.264.516.487.871.449,2.381-.264,1.442-.68,3.622-1.707,5.715.264.4.375.677.49,1.741.03a1.5,1.5,0,0,1,1.185,2.754,4.27,4.27,0,0,1-4.982-.6c-.516-.483-.871-.443-2.381.267A7.183,7.183,0,0,1,299.4,383.591Z" transform="translate(10.841 15.496)" fill="#26c179"/>
          <path id="Trazado_16368" data-name="Trazado 16368" d="M299.4,388.393a3.828,3.828,0,0,1-2.7-1.146c-.519-.487-.874-.446-2.381.266-1.443.68-3.623,1.709-5.717-.266-.517-.487-.873-.446-2.38.266-1.442.68-3.623,1.709-5.717-.266a1.5,1.5,0,1,1,2.058-2.182c.518.489.873.446,2.38-.266,1.443-.68,3.623-1.707,5.717.266.518.489.874.446,2.38-.266,1.442-.68,3.621-1.707,5.717.266.518.489.874.446,2.38-.266,1.443-.68,3.623-1.707,5.717.266.417.395.707.5,1.912-.047a1.5,1.5,0,1,1,1.232,2.733,4.37,4.37,0,0,1-5.2-.5c-.518-.486-.874-.446-2.381.266A7.183,7.183,0,0,1,299.4,388.393Z" transform="translate(10.841 17.983)" fill="#26c179"/>
        </g>
      </g>
      <g id="Grupo_14593" data-name="Grupo 14593" transform="translate(-15 45)">
        <circle id="Elipse_638" data-name="Elipse 638" cx="46.5" cy="46.5" r="46.5" transform="translate(971 4247)" fill="#dbffee"/>
        <g id="Grupo_14588" data-name="Grupo 14588" transform="translate(632.965 4163.117)">
          <path id="Trazado_16369" data-name="Trazado 16369" d="M377.526,160.121H350.951a1.416,1.416,0,0,1-1.416-1.416v-5.258a1.416,1.416,0,0,1,1.416-1.416h26.575a1.416,1.416,0,0,1,1.416,1.416v5.258A1.416,1.416,0,0,1,377.526,160.121Zm-25.159-2.832H376.11v-2.426H352.367Z" transform="translate(0.7 23.454)" fill="#26c179"/>
          <path id="Trazado_16370" data-name="Trazado 16370" d="M373.987,171.115H354.48a1.415,1.415,0,0,1-1.416-1.416v-8.13l-3.418-27.542a12.529,12.529,0,0,1,2.413-9.146l7.73-9.83a1.417,1.417,0,0,1,2.53.876v13.168a1.421,1.421,0,0,1-.189.707,2.745,2.745,0,0,0-.017,2.787L369.1,141.3l-.052-8.241a5.356,5.356,0,0,1,1.608-3.891,5.412,5.412,0,0,1,3.92-1.529,5.7,5.7,0,0,1,5.508,5.617l.112,17.732a11.165,11.165,0,0,1-1.728,6.068l-3.063,4.837V169.7A1.416,1.416,0,0,1,373.987,171.115ZM355.9,168.283h16.675v-6.8a1.419,1.419,0,0,1,.219-.758l3.283-5.182a8.362,8.362,0,0,0,1.288-4.536l-.112-17.732a2.845,2.845,0,0,0-2.749-2.8,2.5,2.5,0,0,0-1.865.721,2.545,2.545,0,0,0-.758,1.85l.059,9.442a2.37,2.37,0,0,1-1.589,2.277,2.427,2.427,0,0,1-2.736-.787L359.9,134.36a5.468,5.468,0,0,1-.416-5.612v-8.732l-5.185,6.593a9.7,9.7,0,0,0-1.846,7.07l3.428,27.628a1.177,1.177,0,0,1,.011.175Z" transform="translate(0.705 7.202)" fill="#26c179"/>
          <path id="Trazado_16371" data-name="Trazado 16371" d="M405.154,166.912H378.616a1.416,1.416,0,1,1,0-2.832h25.122V100.715H359.315v16.332a1.416,1.416,0,1,1-2.832,0V99.3a1.415,1.415,0,0,1,1.416-1.416h47.255A1.415,1.415,0,0,1,406.57,99.3v66.2A1.416,1.416,0,0,1,405.154,166.912Z" transform="translate(3.71)" fill="#02255f"/>
          <path id="Trazado_16372" data-name="Trazado 16372" d="M406.182,170.408H381.314a1.416,1.416,0,0,1,0-2.832h23.452V104.211h-4.278a1.416,1.416,0,0,1,0-2.832h5.694a1.415,1.415,0,0,1,1.416,1.416v66.2A1.416,1.416,0,0,1,406.182,170.408Z" transform="translate(8.376 1.514)" fill="#02255f"/>
          <path id="Trazado_16373" data-name="Trazado 16373" d="M405.32,158.532H349.334a1.416,1.416,0,0,1,0-2.832H405.32a1.416,1.416,0,1,1,0,2.832Z" transform="translate(0 25.044)" fill="#26c179"/>
          <path id="Trazado_16374" data-name="Trazado 16374" d="M377.566,107.508a3.39,3.39,0,0,1-2.395-1c-.364-.344-.566-.363-1.863.251-1.184.557-3.163,1.49-5.012-.251-.364-.345-.566-.36-1.863.249-1.182.557-3.162,1.492-5.012-.249a1.416,1.416,0,1,1,1.942-2.061c.365.344.569.358,1.863-.251,1.185-.558,3.166-1.49,5.012.251.364.343.565.361,1.863-.251,1.182-.558,3.163-1.492,5.013.251.364.344.566.358,1.862-.251,1.184-.558,3.163-1.492,5.013.251.364.343.565.36,1.862-.251,1.182-.558,3.163-1.492,5.013.251.364.343.565.36,1.862-.251,1.184-.558,3.163-1.492,5.013.251A1.416,1.416,0,1,1,395.8,106.5c-.364-.344-.566-.363-1.865.251-1.181.557-3.164,1.489-5.01-.251-.367-.344-.566-.363-1.865.251-1.182.557-3.166,1.489-5.012-.251-.364-.344-.565-.363-1.862.251A6.27,6.27,0,0,1,377.566,107.508Z" transform="translate(5.656 2.405)" fill="#02255f"/>
          <path id="Trazado_16375" data-name="Trazado 16375" d="M377.566,113.785a3.4,3.4,0,0,1-2.395-1c-.364-.344-.566-.361-1.863.249-1.184.558-3.163,1.492-5.012-.249-.364-.345-.566-.361-1.863.249-1.182.558-3.162,1.493-5.012-.249a1.416,1.416,0,1,1,1.942-2.061c.365.344.569.358,1.863-.251,1.185-.557,3.166-1.49,5.012.251.364.344.565.361,1.863-.251,1.182-.557,3.163-1.492,5.013.251.364.344.566.358,1.862-.251,1.184-.557,3.163-1.492,5.013.251.364.344.565.358,1.862-.251,1.182-.557,3.163-1.492,5.013.251.364.344.565.358,1.862-.251,1.184-.557,3.163-1.492,5.013.251a1.416,1.416,0,1,1-1.942,2.061c-.364-.344-.566-.361-1.865.249-1.181.558-3.164,1.49-5.01-.249-.367-.345-.566-.361-1.865.249-1.182.558-3.166,1.49-5.012-.249-.364-.344-.565-.361-1.862.249A6.249,6.249,0,0,1,377.566,113.785Z" transform="translate(5.656 5.124)" fill="#02255f"/>
          <path id="Trazado_16376" data-name="Trazado 16376" d="M377.566,120.062a3.4,3.4,0,0,1-2.395-1c-.364-.345-.566-.361-1.863.249-1.184.557-3.163,1.49-5.012-.249-.364-.345-.566-.36-1.863.249-1.182.557-3.162,1.492-5.012-.249a1.416,1.416,0,0,1,1.942-2.062c.365.344.569.36,1.863-.249,1.185-.557,3.166-1.492,5.012.249.364.344.565.363,1.863-.249,1.182-.557,3.163-1.493,5.013.249.364.344.566.36,1.862-.249,1.184-.557,3.163-1.493,5.013.249.364.344.565.361,1.862-.249,1.182-.557,3.163-1.493,5.013.249.364.344.565.361,1.862-.249,1.184-.557,3.163-1.493,5.013.249a1.416,1.416,0,1,1-1.942,2.062c-.364-.345-.566-.361-1.865.249-1.181.557-3.164,1.49-5.01-.249-.367-.345-.566-.361-1.865.249-1.182.557-3.166,1.49-5.012-.249-.364-.345-.565-.361-1.862.249A6.249,6.249,0,0,1,377.566,120.062Z" transform="translate(5.656 7.843)" fill="#02255f"/>
          <path id="Trazado_16377" data-name="Trazado 16377" d="M387.16,126.339a3.385,3.385,0,0,1-2.393-1.006c-.37-.347-.572-.358-1.863.251-1.184.559-3.167,1.49-5.013-.251-.368-.347-.569-.358-1.862.251-1.184.559-3.162,1.492-5.013-.251a1.416,1.416,0,0,1,1.943-2.061c.364.345.57.358,1.862-.251,1.184-.557,3.163-1.49,5.013.251.364.344.565.361,1.862-.251,1.182-.557,3.163-1.49,5.013.251.364.344.565.361,1.862-.251,1.184-.557,3.163-1.49,5.013.251a1.416,1.416,0,1,1-1.942,2.061c-.364-.343-.566-.361-1.863.251A6.242,6.242,0,0,1,387.16,126.339Z" transform="translate(9.812 10.562)" fill="#02255f"/>
          <path id="Trazado_16378" data-name="Trazado 16378" d="M386.309,132.616a3.385,3.385,0,0,1-2.393-1.006c-.365-.345-.57-.36-1.863.251-1.185.559-3.166,1.492-5.013-.251-.364-.345-.567-.36-1.862.251-.224.1-.447.211-.671.305a1.416,1.416,0,0,1-1.109-2.605c.191-.082.381-.172.572-.261,1.184-.559,3.164-1.492,5.013.249.364.344.568.36,1.863-.249,1.181-.557,3.162-1.493,5.012.249.364.344.566.36,1.863-.249,1.181-.557,3.162-1.493,5.012.249a1.416,1.416,0,1,1-1.942,2.061c-.365-.345-.569-.36-1.863.251A6.243,6.243,0,0,1,386.309,132.616Z" transform="translate(10.663 13.281)" fill="#02255f"/>
          <path id="Trazado_16379" data-name="Trazado 16379" d="M386.285,138.893a3.385,3.385,0,0,1-2.393-1.006c-.365-.344-.57-.358-1.863.251-1.185.559-3.166,1.49-5.013-.251-.364-.344-.565-.361-1.862.251-.193.09-.387.182-.58.267a1.416,1.416,0,0,1-1.131-2.6c.169-.073.337-.152.5-.232,1.187-.557,3.166-1.488,5.012.251.364.344.565.361,1.863-.249,1.181-.559,3.162-1.493,5.012.249.364.345.566.36,1.863-.249,1.181-.559,3.162-1.493,5.012.249a1.416,1.416,0,1,1-1.942,2.061c-.365-.344-.569-.358-1.863.251A6.242,6.242,0,0,1,386.285,138.893Z" transform="translate(10.687 16)" fill="#02255f"/>
        </g>
      </g>
      <g id="Grupo_14592" data-name="Grupo 14592" transform="translate(-12 45)">
        <circle id="Elipse_639" data-name="Elipse 639" cx="46.5" cy="46.5" r="46.5" transform="translate(666 4247)" fill="#dbffee"/>
        <g id="Grupo_14590" data-name="Grupo 14590" transform="translate(334.257 3834.199)">
          <path id="Trazado_16380" data-name="Trazado 16380" d="M408.9,487.6H352.766a1.434,1.434,0,0,1,0-2.867H408.9a4.22,4.22,0,1,0,0-8.44H352.766a1.434,1.434,0,1,1,0-2.867H408.9a7.087,7.087,0,1,1,0,14.174Z" transform="translate(1.758 21.032)" fill="#02255f"/>
          <path id="Trazado_16381" data-name="Trazado 16381" d="M354.434,487.222a6.807,6.807,0,0,1-6.8-6.8,1.147,1.147,0,1,1,2.294,0,4.506,4.506,0,1,0,4.506-4.506,1.147,1.147,0,0,1,0-2.294,6.8,6.8,0,1,1,0,13.6Z" transform="translate(0.089 21.121)" fill="#02255f"/>
          <path id="Trazado_16382" data-name="Trazado 16382" d="M354.85,508.63a7.422,7.422,0,0,1-7.414-7.414v-67a7.422,7.422,0,0,1,7.414-7.414,1.434,1.434,0,0,1,0,2.869,4.551,4.551,0,0,0-4.546,4.545v67a4.552,4.552,0,0,0,4.546,4.546,1.434,1.434,0,1,1,0,2.867Z" transform="translate(0 0)" fill="#02255f"/>
          <path id="Trazado_16383" data-name="Trazado 16383" d="M384.695,493.808a1.434,1.434,0,0,1-1.434-1.434V436.027a1.434,1.434,0,0,1,2.867,0v56.348A1.433,1.433,0,0,1,384.695,493.808Z" transform="translate(16.161 3.515)" fill="#02255f"/>
          <path id="Trazado_16384" data-name="Trazado 16384" d="M408.9,440.975H352.766a1.434,1.434,0,0,1,0-2.867H408.9a4.219,4.219,0,1,0,0-8.438H352.766a1.434,1.434,0,0,1,0-2.869H408.9a7.087,7.087,0,0,1,0,14.174Z" transform="translate(1.758 0)" fill="#02255f"/>
          <path id="Trazado_16385" data-name="Trazado 16385" d="M354.434,440.6a1.147,1.147,0,0,1,0-2.294,4.506,4.506,0,1,0-4.506-4.506,1.147,1.147,0,1,1-2.294,0,6.8,6.8,0,1,1,6.8,6.8Z" transform="translate(0.089 0.089)" fill="#02255f"/>
          <path id="Trazado_16386" data-name="Trazado 16386" d="M371.084,444.018a3.8,3.8,0,0,1-2.682-1.136c-.557-.522-.932-.488-2.5.254-1.439.679-3.618,1.7-5.694-.253-.559-.53-.935-.487-2.5.253-1.441.679-3.616,1.706-5.693-.254a1.433,1.433,0,0,1,1.966-2.085c.559.525.935.485,2.5-.254,1.442-.679,3.618-1.705,5.694.254.556.524.93.488,2.5-.254,1.438-.679,3.618-1.7,5.693.253.559.528.935.486,2.5-.253,1.441-.679,3.618-1.7,5.694.253.554.527.929.489,2.5-.253,1.439-.679,3.615-1.708,5.693.254.559.525.935.485,2.5-.254,1.442-.679,3.618-1.705,5.694.254a1.434,1.434,0,0,1-1.968,2.085c-.56-.527-.935-.486-2.5.254-1.439.679-3.616,1.706-5.693-.254-.559-.527-.936-.486-2.5.254-1.441.679-3.619,1.706-5.694-.254-.556-.522-.93-.488-2.5.254A7.175,7.175,0,0,1,371.084,444.018Z" transform="translate(1.859 5.8)" fill="#02255f"/>
          <path id="Trazado_16387" data-name="Trazado 16387" d="M371.084,449.288a3.791,3.791,0,0,1-2.682-1.136c-.557-.524-.932-.486-2.5.255-1.439.679-3.618,1.7-5.694-.254-.559-.53-.935-.486-2.5.254-1.441.679-3.616,1.705-5.693-.255a1.433,1.433,0,1,1,1.966-2.085c.559.525.935.485,2.5-.254,1.442-.679,3.618-1.705,5.694.254.556.524.93.488,2.5-.254,1.438-.679,3.618-1.7,5.693.253.559.528.935.486,2.5-.253,1.441-.679,3.618-1.7,5.694.253.554.525.929.489,2.5-.253,1.439-.679,3.615-1.708,5.693.254.559.525.935.485,2.5-.254,1.442-.679,3.618-1.705,5.694.254a1.434,1.434,0,1,1-1.968,2.085c-.56-.525-.935-.485-2.5.255-1.439.679-3.616,1.705-5.693-.255-.559-.525-.936-.485-2.5.255-1.441.679-3.619,1.705-5.694-.255-.556-.524-.93-.486-2.5.255A7.2,7.2,0,0,1,371.084,449.288Z" transform="translate(1.859 8.178)" fill="#02255f"/>
          <path id="Trazado_16388" data-name="Trazado 16388" d="M371.084,454.558a3.8,3.8,0,0,1-2.682-1.135c-.557-.525-.932-.488-2.5.254-1.439.68-3.618,1.7-5.694-.253-.559-.53-.935-.488-2.5.253-1.441.68-3.616,1.706-5.693-.254a1.433,1.433,0,1,1,1.966-2.085c.559.524.935.485,2.5-.255,1.442-.678,3.618-1.705,5.694.255.556.524.93.486,2.5-.255,1.438-.678,3.618-1.7,5.693.254.559.527.935.486,2.5-.254,1.441-.678,3.618-1.7,5.694.254.554.525.929.488,2.5-.254,1.439-.678,3.615-1.708,5.693.255.559.524.935.485,2.5-.255,1.442-.678,3.618-1.705,5.694.255a1.434,1.434,0,0,1-1.968,2.085c-.56-.527-.935-.486-2.5.254-1.439.68-3.616,1.706-5.693-.254-.559-.527-.936-.486-2.5.254-1.441.68-3.619,1.706-5.694-.254-.556-.525-.93-.488-2.5.254A7.176,7.176,0,0,1,371.084,454.558Z" transform="translate(1.859 10.555)" fill="#02255f"/>
          <path id="Trazado_16389" data-name="Trazado 16389" d="M371.084,459.83a3.8,3.8,0,0,1-2.682-1.136c-.557-.524-.932-.488-2.5.254-1.439.681-3.618,1.7-5.694-.253-.559-.53-.935-.488-2.5.253-1.441.681-3.616,1.706-5.693-.254a1.433,1.433,0,1,1,1.966-2.085c.559.524.935.485,2.5-.255,1.442-.678,3.618-1.7,5.694.255.556.524.93.486,2.5-.255,1.438-.678,3.618-1.7,5.693.254.559.527.935.486,2.5-.254,1.441-.678,3.618-1.7,5.694.254.554.527.929.488,2.5-.254,1.439-.678,3.615-1.708,5.693.255.559.524.935.485,2.5-.255,1.442-.678,3.618-1.7,5.694.255a1.434,1.434,0,1,1-1.968,2.085c-.56-.527-.935-.486-2.5.254-1.439.681-3.616,1.706-5.693-.254-.559-.527-.936-.486-2.5.254-1.441.681-3.619,1.706-5.694-.254-.556-.524-.93-.488-2.5.254A7.176,7.176,0,0,1,371.084,459.83Z" transform="translate(1.859 12.933)" fill="#02255f"/>
          <path id="Trazado_16390" data-name="Trazado 16390" d="M388.028,473.761H364.18a1.434,1.434,0,0,1-1.434-1.434V462.235a1.433,1.433,0,0,1,1.434-1.434h23.849a1.433,1.433,0,0,1,1.434,1.434v10.092A1.434,1.434,0,0,1,388.028,473.761Zm-22.415-2.867h20.981v-7.225H365.613Z" transform="translate(6.906 15.337)" fill="#02255f"/>
        </g>
      </g>
      <g id="Grupo_14596" data-name="Grupo 14596" transform="translate(0 -35)">
        <circle id="Elipse_640" data-name="Elipse 640" cx="46.5" cy="46.5" r="46.5" transform="translate(654 4120)" fill="#dbffee"/>
        <g id="Grupo_14595" data-name="Grupo 14595" transform="translate(241.511 4113.242)">
          <path id="Trazado_16408" data-name="Trazado 16408" d="M486.564,87.627h-44.67a1.2,1.2,0,0,1-1.2-1.2V81.687a1.2,1.2,0,0,1,1.2-1.2h38.084V23.849a1.2,1.2,0,0,1,1.2-1.2h5.383a1.2,1.2,0,0,1,1.2,1.2V86.423A1.2,1.2,0,0,1,486.564,87.627ZM443.1,85.22H485.36V25.053h-2.976V81.687a1.2,1.2,0,0,1-1.2,1.2H443.1Z" transform="translate(3.097 0.848)" fill="#02255f"/>
          <path id="Trazado_16409" data-name="Trazado 16409" d="M456.845,64.19H444.328a1.2,1.2,0,0,1-1.2-1.2V58.9a1.2,1.2,0,0,1,1.2-1.2h2.039V37.659h-4.623v1.4a1.2,1.2,0,0,1-1.2,1.2h-4.47a1.2,1.2,0,0,1-1.2-1.2V32.366a1.2,1.2,0,0,1,1.2-1.2H465.1a1.2,1.2,0,0,1,1.2,1.2v6.688a1.2,1.2,0,0,1-1.2,1.2h-4.47a1.2,1.2,0,0,1-1.2-1.2v-1.4h-4.621V57.694h2.037a1.2,1.2,0,0,1,1.2,1.2v4.089A1.2,1.2,0,0,1,456.845,64.19Zm-11.313-2.407h10.11V60.1H453.6a1.2,1.2,0,0,1-1.2-1.2V36.456a1.2,1.2,0,0,1,1.2-1.2h7.028a1.2,1.2,0,0,1,1.2,1.2v1.4H463.9V33.57H437.274v4.282h2.063v-1.4a1.2,1.2,0,0,1,1.2-1.2h7.03a1.2,1.2,0,0,1,1.2,1.2V58.9a1.2,1.2,0,0,1-1.2,1.2h-2.039Z" transform="translate(1.827 2.705)" fill="#26c179"/>
          <path id="Trazado_16410" data-name="Trazado 16410" d="M482.145,83.739h-44.67a1.2,1.2,0,0,1-1.2-1.2V70.568A1.2,1.2,0,0,1,438.1,69.54a23.518,23.518,0,1,0,0-40.242,1.2,1.2,0,0,1-1.828-1.029V19.961a1.2,1.2,0,0,1,1.2-1.2h44.67a1.2,1.2,0,0,1,1.2,1.2V82.535A1.2,1.2,0,0,1,482.145,83.739Zm-43.467-2.407h42.264V21.165H438.678v5.066a25.924,25.924,0,1,1,0,46.376Z" transform="translate(2.133)" fill="#02255f"/>
          <path id="Trazado_16411" data-name="Trazado 16411" d="M452.415,74.495A25.924,25.924,0,1,1,478.339,48.57,25.954,25.954,0,0,1,452.415,74.495Zm0-49.442A23.517,23.517,0,1,0,475.932,48.57,23.544,23.544,0,0,0,452.415,25.053Z" transform="translate(0 0.848)" fill="#26c179"/>
        </g>
      </g>
      <g id="Grupo_14597" data-name="Grupo 14597" transform="translate(0 37)">
        <circle id="Elipse_641" data-name="Elipse 641" cx="46.5" cy="46.5" r="46.5" transform="translate(654 4458)" fill="#dbffee"/>
        <g id="Grupo_14594" data-name="Grupo 14594" transform="translate(241.832 4044.997)">
          <path id="Trazado_16391" data-name="Trazado 16391" d="M470.465,494.256h-39.3a1.187,1.187,0,0,1-1.187-1.187V481.544a1.187,1.187,0,0,1,2.374,0v10.338h37.638l16.515-15.551V430.6H432.357v16.754a1.187,1.187,0,1,1-2.374,0V429.414a1.186,1.186,0,0,1,1.187-1.187H487.7a1.187,1.187,0,0,1,1.187,1.187v47.43a1.187,1.187,0,0,1-.374.864l-17.231,16.225A1.183,1.183,0,0,1,470.465,494.256Z" transform="translate(0.638 0.876)" fill="#02255f"/>
          <path id="Trazado_16392" data-name="Trazado 16392" d="M435.913,435.645a1.187,1.187,0,0,1-1.187-1.187v-9.4a1.187,1.187,0,1,1,2.374,0v9.4A1.187,1.187,0,0,1,435.913,435.645Z" transform="translate(1.593)" fill="#02255f"/>
          <path id="Trazado_16393" data-name="Trazado 16393" d="M441.28,435.645a1.187,1.187,0,0,1-1.187-1.187v-9.4a1.187,1.187,0,0,1,2.374,0v9.4A1.188,1.188,0,0,1,441.28,435.645Z" transform="translate(2.673)" fill="#02255f"/>
          <path id="Trazado_16394" data-name="Trazado 16394" d="M446.646,435.645a1.188,1.188,0,0,1-1.187-1.187v-9.4a1.187,1.187,0,1,1,2.374,0v9.4A1.187,1.187,0,0,1,446.646,435.645Z" transform="translate(3.753)" fill="#02255f"/>
          <path id="Trazado_16395" data-name="Trazado 16395" d="M452.013,435.645a1.188,1.188,0,0,1-1.187-1.187v-9.4a1.187,1.187,0,0,1,2.374,0v9.4A1.187,1.187,0,0,1,452.013,435.645Z" transform="translate(4.833)" fill="#02255f"/>
          <path id="Trazado_16396" data-name="Trazado 16396" d="M457.38,435.645a1.187,1.187,0,0,1-1.187-1.187v-9.4a1.187,1.187,0,1,1,2.374,0v9.4A1.187,1.187,0,0,1,457.38,435.645Z" transform="translate(5.914)" fill="#02255f"/>
          <path id="Trazado_16397" data-name="Trazado 16397" d="M462.747,435.645a1.187,1.187,0,0,1-1.187-1.187v-9.4a1.187,1.187,0,0,1,2.374,0v9.4A1.187,1.187,0,0,1,462.747,435.645Z" transform="translate(6.994)" fill="#02255f"/>
          <path id="Trazado_16398" data-name="Trazado 16398" d="M468.115,435.645a1.187,1.187,0,0,1-1.187-1.187v-9.4a1.187,1.187,0,1,1,2.374,0v9.4A1.188,1.188,0,0,1,468.115,435.645Z" transform="translate(8.074)" fill="#02255f"/>
          <path id="Trazado_16399" data-name="Trazado 16399" d="M473.482,435.645a1.187,1.187,0,0,1-1.187-1.187v-9.4a1.187,1.187,0,0,1,2.374,0v9.4A1.188,1.188,0,0,1,473.482,435.645Z" transform="translate(9.155)" fill="#02255f"/>
          <path id="Trazado_16400" data-name="Trazado 16400" d="M463.881,486.371a1.187,1.187,0,0,1-1.187-1.187v-16.6a1.187,1.187,0,0,1,1.187-1.187h17.231a1.187,1.187,0,0,1,.823,2.042l-17.231,16.6A1.183,1.183,0,0,1,463.881,486.371Zm1.187-16.6v12.621l13.1-12.621Z" transform="translate(7.222 8.761)" fill="#02255f"/>
          <path id="Trazado_16401" data-name="Trazado 16401" d="M440.9,475.636a14.081,14.081,0,1,1,4.447-27.446,1.187,1.187,0,1,1-.75,2.252,11.689,11.689,0,1,0,7.455,7.539,1.187,1.187,0,1,1,2.261-.723A14.094,14.094,0,0,1,440.9,475.636Z" transform="translate(0 4.75)" fill="#26c179"/>
          <path id="Trazado_16402" data-name="Trazado 16402" d="M438.215,466.141c-.041,0-.082,0-.123-.006a1.189,1.189,0,0,1-.942-.654l-2.95-5.948a1.187,1.187,0,0,1,2.128-1.055l2.114,4.265,12.007-15.277a1.187,1.187,0,0,1,1.866,1.467l-13.167,16.754A1.187,1.187,0,0,1,438.215,466.141Z" transform="translate(1.462 4.658)" fill="#26c179"/>
          <path id="Trazado_16403" data-name="Trazado 16403" d="M475.357,441.2H452.883a1.187,1.187,0,0,1,0-2.374h22.474a1.187,1.187,0,1,1,0,2.374Z" transform="translate(5.008 3.009)" fill="#02255f"/>
          <path id="Trazado_16404" data-name="Trazado 16404" d="M475.357,447.152H452.883a1.187,1.187,0,0,1,0-2.374h22.474a1.187,1.187,0,1,1,0,2.374Z" transform="translate(5.008 4.208)" fill="#02255f"/>
          <path id="Trazado_16405" data-name="Trazado 16405" d="M474.336,453.1H457.954a1.187,1.187,0,1,1,0-2.374h16.382a1.187,1.187,0,1,1,0,2.374Z" transform="translate(6.029 5.406)" fill="#02255f"/>
          <path id="Trazado_16406" data-name="Trazado 16406" d="M474.336,459.057H457.954a1.187,1.187,0,1,1,0-2.374h16.382a1.187,1.187,0,1,1,0,2.374Z" transform="translate(6.029 6.604)" fill="#02255f"/>
          <path id="Trazado_16407" data-name="Trazado 16407" d="M474.336,465.01H457.954a1.187,1.187,0,1,1,0-2.374h16.382a1.187,1.187,0,1,1,0,2.374Z" transform="translate(6.029 7.802)" fill="#02255f"/>
        </g>
      </g>
      <g id="Grupo_14598" data-name="Grupo 14598" transform="translate(0 4)">
        <path id="Trazado_16412" data-name="Trazado 16412" d="M-8637.7,6943.621H-8520.7" transform="translate(9135 -2599)" fill="none" stroke="#ffa800" stroke-width="2"/>
        <path id="Polgono_1" data-name="Polgono 1" d="M8,0l8,14H0Z" transform="translate(628 4337) rotate(90)" fill="#ffa800"/>
      </g>
      <g id="Grupo_14599" data-name="Grupo 14599" transform="translate(280.703 4)">
        <path id="Trazado_16412-2" data-name="Trazado 16412" d="M-8637.7,6943.621H-8520.7" transform="translate(9135 -2599)" fill="none" stroke="#ffa800" stroke-width="2"/>
        <path id="Polgono_1-2" data-name="Polgono 1" d="M8,0l8,14H0Z" transform="translate(628 4337) rotate(90)" fill="#ffa800"/>
      </g>
      <g id="Grupo_14600" data-name="Grupo 14600" transform="translate(5045 3851.703) rotate(90)">
        <path id="Trazado_16412-3" data-name="Trazado 16412" d="M-8637.7,6943.621h36.295" transform="translate(9215.713 -2599)" fill="none" stroke="#ffa800" stroke-width="2"/>
        <path id="Polgono_1-3" data-name="Polgono 1" d="M8,0l8,14H0Z" transform="translate(628 4337) rotate(90)" fill="#ffa800"/>
      </g>
      <g id="Grupo_14601" data-name="Grupo 14601" transform="translate(5045 3649) rotate(90)">
        <path id="Trazado_16412-4" data-name="Trazado 16412" d="M-8637.7,6943.621h36.295" transform="translate(9215.713 -2599)" fill="none" stroke="#ffa800" stroke-width="2"/>
        <path id="Polgono_1-4" data-name="Polgono 1" d="M8,0l8,14H0Z" transform="translate(628 4337) rotate(90)" fill="#ffa800"/>
      </g>
    </g>
  </g>
</svg>
